<?xml version="1.0"?>
<!-- Created with xTool Creative Space (https://www.xtool.com/pages/software) -->
<svg xmlns="http://www.w3.org/2000/svg" xmlns:xlink="http://www.w3.org/1999/xlink" xmlns:xcs="https://www.xtool.com/pages/software" version="1.1" preserveAspectRatio="xMinYMin meet" width="218.89526998495919mm" height="32.0815869431716mm" viewBox="-60.07024580762655 21.57911027058765 218.89526998495919 32.0815869431716" xcs:version="1.3.6"><style></style>
<g transform="matrix(1.384063,0,0,1.384063,29.451163,53.245478)" stroke="none" fill="#c9a962" data-view-type="laser"><path transform="matrix(1,0,0,1,0,0)" stroke="none" fill="#c9a962" data-view-type="laser" d="M1.57 0L6.4 0L6.4 -10.16L10.92 -3.25L11.02 -3.25L15.57 -10.21L15.57 0L20.47 0L20.47 -17.78L15.27 -17.78L11.02 -10.9L6.78 -17.78L1.57 -17.78Z" fill-rule="nonzero"></path>
<path transform="matrix(1,0,0,1,22.0472,0)" stroke="none" fill="#c9a962" data-view-type="laser" d="M0.15 0L5.33 0L6.6 -3.17L13.46 -3.17L14.76 0L20.04 0L12.47 -17.91L7.72 -17.91ZM8.05 -7.01L10.06 -12.06L12.04 -7.01Z" fill-rule="nonzero"></path>
<path transform="matrix(1,0,0,1,42.2402,0)" stroke="none" fill="#c9a962" data-view-type="laser" d="M1.57 0L6.5 0L6.5 -4.6L8.31 -6.6L12.78 0L18.69 0L11.73 -10.13L18.47 -17.78L12.62 -17.78L6.5 -10.57L6.5 -17.78L1.57 -17.78Z" fill-rule="nonzero"></path>
<path transform="matrix(1,0,0,1,60.7822,0)" stroke="none" fill="#c9a962" data-view-type="laser" d="M1.57 0L16 0L16 -4.19L6.45 -4.19L6.45 -7.01L14.99 -7.01L14.99 -10.9L6.45 -10.9L6.45 -13.59L15.88 -13.59L15.88 -17.78L1.57 -17.78Z" fill-rule="nonzero"></path>
<path transform="matrix(1,0,0,1,77.724,0)" stroke="none" fill="#c9a962" data-view-type="laser" d="M8.56 0.3C12.88 0.3 15.75 -1.85 15.75 -5.49L15.75 -5.54C15.75 -8.86 13.21 -10.19 9.12 -11.07C6.65 -11.63 6.05 -11.99 6.05 -12.8L6.05 -12.85C6.05 -13.49 6.63 -14 7.82 -14C9.4 -14 11.18 -13.39 12.8 -12.24L15.27 -15.72C13.34 -17.27 10.97 -18.08 7.95 -18.08C3.68 -18.08 1.07 -15.7 1.07 -12.4L1.07 -12.34C1.07 -8.69 3.99 -7.62 7.77 -6.76C10.19 -6.2 10.77 -5.79 10.77 -5.05L10.77 -5C10.77 -4.24 10.06 -3.78 8.74 -3.78C6.68 -3.78 4.72 -4.52 2.97 -5.92L0.23 -2.64C2.41 -0.69 5.41 0.3 8.56 0.3Z" fill-rule="nonzero"></path></g><g transform="matrix(1.53684,0,0,1.53684,-62.82119,51.040339)" stroke="none" fill="#000000" data-view-type="laser"><path transform="matrix(1,0,0,1,1.77636e-15,2.84217e-14)" stroke="none" fill="#000000" data-view-type="laser" d="M20.59 -1.44Q20.59 -1.34 20.49 -1.24Q19.84 -0.55 19.04 -0.1Q18.23 0.35 17.35 0.62Q16.47 0.89 15.53 1Q14.59 1.12 13.69 1.12Q12.9 1.12 12.1 1.05Q11.31 0.99 10.52 0.89Q9.1 0.69 7.7 0.57Q6.3 0.45 4.86 0.45Q4.29 0.45 3.72 0.47Q3.15 0.5 2.58 0.55Q2.51 0.62 2.41 0.69Q2.31 0.77 2.18 0.77Q2.03 0.77 1.91 0.64Q1.79 0.52 1.79 0.35Q1.79 0.27 1.81 0.22Q1.81 0.2 1.8 0.19Q1.79 0.17 1.79 0.12Q1.79 -0.05 1.91 -0.11Q2.03 -0.17 2.16 -0.22Q2.93 -1.24 3.58 -2.36Q4.24 -3.47 4.8 -4.63Q5.36 -5.78 5.87 -6.96Q6.37 -8.14 6.87 -9.33Q7.54 -10.86 8.32 -12.39Q9.1 -13.92 10.12 -15.25Q11.14 -16.59 12.45 -17.62Q13.77 -18.65 15.48 -19.17L15.53 -19.17Q15.65 -19.17 15.76 -19.03Q15.88 -18.88 15.88 -18.75Q15.88 -18.55 15.7 -18.45Q15.21 -18.21 14.78 -18.03Q14.36 -17.86 13.87 -17.51Q12.77 -16.77 11.91 -15.76Q11.04 -14.76 10.34 -13.62Q9.65 -12.48 9.09 -11.25Q8.53 -10.02 8.04 -8.83Q7.59 -7.79 7.18 -6.72Q6.77 -5.66 6.3 -4.61Q5.83 -3.57 5.25 -2.59Q4.66 -1.61 3.92 -0.74Q4.84 -0.89 5.8 -0.89Q6.87 -0.89 7.95 -0.76Q9.03 -0.62 10.1 -0.47Q11.16 -0.32 12.23 -0.19Q13.3 -0.05 14.39 -0.05Q15.63 -0.05 16.82 -0.27Q18.01 -0.5 19.1 -1.14Q19.35 -1.29 19.56 -1.45Q19.77 -1.61 20.02 -1.79Q20.09 -1.86 20.19 -1.86Q20.32 -1.86 20.45 -1.71Q20.59 -1.56 20.59 -1.44Z" fill-rule="nonzero"></path>
<path transform="matrix(1,0,0,1,19.298047,2.84217e-14)" stroke="none" fill="#000000" data-view-type="laser" d="M11.83 -3.87Q11.19 -2.55 10.49 -1.53Q9.8 -0.5 8.68 0.47Q8.14 0.97 7.44 0.97Q7.07 0.97 6.73 0.76Q6.4 0.55 6.28 0.17Q6.23 0.05 6.21 -0.17Q6.2 -0.4 6.19 -0.64Q6.18 -0.89 6.19 -1.13Q6.2 -1.36 6.2 -1.51Q5.33 -0.47 4.15 0.26Q2.98 0.99 1.56 0.99Q1.49 0.99 1.35 0.94Q1.22 0.89 1.14 0.87Q0.57 0.6 0.29 0Q0 -0.6 0 -1.19Q0 -2.01 0.21 -2.82Q0.42 -3.62 0.78 -4.38Q1.14 -5.13 1.61 -5.83Q2.08 -6.52 2.6 -7.14Q3.94 -8.81 5.68 -10.03Q7.42 -11.26 9.45 -12.01Q9.48 -12.03 9.55 -12.03Q9.72 -12.03 9.81 -11.91Q9.9 -11.78 9.9 -11.63Q9.9 -11.41 9.72 -11.34Q9.3 -11.11 8.89 -10.93Q8.48 -10.74 8.09 -10.52Q5.33 -8.93 3.45 -6.45Q3.08 -5.95 2.68 -5.33Q2.28 -4.71 1.96 -4.06Q1.64 -3.4 1.43 -2.7Q1.22 -2.01 1.22 -1.36Q1.22 -1.27 1.24 -1.08Q1.27 -0.89 1.31 -0.71Q1.36 -0.52 1.48 -0.38Q1.59 -0.25 1.74 -0.25Q2.46 -0.25 3.14 -0.62Q3.82 -0.99 4.42 -1.56Q5.01 -2.13 5.48 -2.78Q5.95 -3.42 6.25 -3.99Q6.82 -5.04 7.27 -6.09Q7.71 -7.14 8.16 -8.21Q8.33 -8.66 8.57 -9.25Q8.81 -9.85 9.03 -10.27Q9.13 -10.44 9.35 -10.44Q9.52 -10.44 9.65 -10.34Q9.77 -10.24 9.77 -10.07L9.75 -10.02Q9.55 -9.13 9.3 -8.22Q9.05 -7.32 8.76 -6.45Q8.63 -6.1 8.46 -5.68Q8.28 -5.26 8.19 -4.96Q8.14 -4.79 8.12 -4.61Q8.11 -4.44 8.09 -4.27Q8.01 -3.87 7.93 -3.49Q7.84 -3.1 7.74 -2.7Q7.62 -2.21 7.53 -1.7Q7.44 -1.19 7.44 -0.67Q7.44 -0.55 7.44 -0.45Q7.44 -0.35 7.47 -0.25Q7.64 -0.25 7.88 -0.4Q8.11 -0.55 8.36 -0.76Q8.61 -0.97 8.82 -1.19Q9.03 -1.41 9.15 -1.54Q9.9 -2.33 10.57 -3.3Q10.74 -3.5 10.88 -3.73Q11.01 -3.97 11.19 -4.17Q11.26 -4.29 11.41 -4.29Q11.58 -4.29 11.71 -4.17Q11.83 -4.04 11.83 -3.87Z" fill-rule="nonzero"></path>
<path transform="matrix(1,0,0,1,30.633789,2.84217e-14)" stroke="none" fill="#000000" data-view-type="laser" d="M11.43 -11.91Q11.43 -11.58 11.14 -11.53Q11.01 -11.48 10.9 -11.5Q10.79 -11.51 10.67 -11.48Q10.37 -11.46 10.08 -11.41Q9.8 -11.36 9.5 -11.31Q8.16 -11.04 6.88 -10.43Q5.61 -9.82 4.66 -8.83Q4.39 -8.53 4.23 -8.2Q4.07 -7.86 4.07 -7.44Q4.07 -7.17 4.37 -7.02Q4.66 -6.87 5.1 -6.72Q5.53 -6.57 6.04 -6.4Q6.55 -6.23 6.98 -5.9Q7.42 -5.58 7.71 -5.07Q8.01 -4.56 8.01 -3.77Q8.01 -2.85 7.66 -2.01Q7.32 -1.17 6.7 -0.51Q6.08 0.15 5.26 0.53Q4.44 0.92 3.52 0.92Q2.65 0.92 2 0.55Q1.34 0.17 0.89 -0.42Q0.45 -1.02 0.22 -1.77Q0 -2.53 0 -3.32Q0 -3.47 0.01 -3.71Q0.02 -3.94 0.06 -4.17Q0.1 -4.39 0.2 -4.56Q0.3 -4.74 0.5 -4.74Q0.62 -4.74 0.76 -4.64Q0.89 -4.54 0.89 -4.39Q0.89 -3.82 1.03 -3.13Q1.17 -2.43 1.46 -1.84Q1.76 -1.24 2.26 -0.83Q2.75 -0.42 3.47 -0.42Q4.12 -0.42 4.71 -0.71Q5.31 -0.99 5.77 -1.46Q6.23 -1.93 6.49 -2.54Q6.75 -3.15 6.75 -3.8L6.75 -4.04Q6.75 -4.46 6.46 -4.74Q6.18 -5.01 5.75 -5.2Q5.33 -5.38 4.84 -5.56Q4.34 -5.73 3.92 -5.97Q3.5 -6.2 3.21 -6.55Q2.93 -6.9 2.93 -7.47Q2.93 -8.06 3.19 -8.61Q3.45 -9.15 3.87 -9.57Q5.33 -10.99 7.23 -11.62Q9.13 -12.25 11.14 -12.25Q11.29 -12.25 11.36 -12.14Q11.43 -12.03 11.43 -11.91Z" fill-rule="nonzero"></path>
<path transform="matrix(1,0,0,1,39.786719,2.84217e-14)" stroke="none" fill="#000000" data-view-type="laser" d="M9.8 -10.34Q9.8 -9.72 9.5 -9.12Q9.2 -8.51 8.74 -7.96Q8.28 -7.42 7.74 -6.97Q7.19 -6.52 6.72 -6.2Q6 -5.71 5.22 -5.28Q4.44 -4.86 3.52 -4.86Q3.32 -4.86 3.09 -4.91Q2.85 -4.96 2.85 -5.23Q2.85 -5.58 3.18 -5.66Q3.25 -5.68 3.35 -5.68Q3.45 -5.68 3.55 -5.71Q3.82 -5.75 4.08 -5.88Q4.34 -6 4.61 -6.15Q5.04 -6.42 5.68 -6.92Q6.33 -7.42 6.95 -8.01Q7.57 -8.61 8 -9.23Q8.43 -9.85 8.43 -10.39Q8.43 -10.74 8.06 -10.74Q7.91 -10.74 7.76 -10.69Q7.62 -10.64 7.47 -10.59Q6.28 -10.19 5.28 -9.39Q4.29 -8.58 3.57 -7.52Q2.85 -6.45 2.44 -5.23Q2.03 -4.02 2.03 -2.8Q2.03 -2.41 2.1 -1.9Q2.16 -1.39 2.34 -0.94Q2.53 -0.5 2.85 -0.19Q3.18 0.12 3.7 0.12Q3.89 0.12 4.07 0.06Q4.24 0 4.42 -0.1Q5.08 -0.47 5.66 -1.1Q6.23 -1.74 6.67 -2.38Q6.8 -2.53 6.91 -2.7Q7.02 -2.88 7.14 -3.05Q7.22 -3.17 7.39 -3.17Q7.54 -3.17 7.68 -3.08Q7.81 -2.98 7.81 -2.8Q7.81 -2.75 7.76 -2.65Q7.47 -2.11 7.02 -1.45Q6.57 -0.79 6.03 -0.22Q5.48 0.35 4.85 0.73Q4.22 1.12 3.52 1.12Q2.75 1.12 2.24 0.68Q1.74 0.25 1.44 -0.38Q1.14 -1.02 1.02 -1.75Q0.89 -2.48 0.89 -3.08Q0.89 -4.96 1.69 -6.68Q2.48 -8.41 3.82 -9.72Q4.22 -10.12 4.74 -10.53Q5.26 -10.94 5.84 -11.27Q6.42 -11.61 7.03 -11.82Q7.64 -12.03 8.21 -12.03Q8.93 -12.03 9.36 -11.55Q9.8 -11.06 9.8 -10.34Z" fill-rule="nonzero"></path>
<path transform="matrix(1,0,0,1,48.691602,2.84217e-14)" stroke="none" fill="#000000" data-view-type="laser" d="M10.47 -9.92Q10.47 -9.72 10.44 -9.55Q10.42 -9.38 10.37 -9.18Q10.32 -8.98 10.1 -8.98Q10 -8.98 9.81 -9.07Q9.62 -9.15 9.62 -9.25L9.65 -9.48Q9.65 -9.65 9.61 -9.9Q9.57 -10.15 9.49 -10.38Q9.4 -10.62 9.25 -10.78Q9.1 -10.94 8.86 -10.94Q8.26 -10.94 7.59 -10.58Q6.92 -10.22 6.45 -9.87Q6.25 -9.72 5.9 -9.43Q5.56 -9.13 5.18 -8.78Q4.81 -8.43 4.5 -8.11Q4.19 -7.79 4.07 -7.59Q3.99 -7.49 3.88 -7.23Q3.77 -6.97 3.66 -6.67Q3.55 -6.37 3.44 -6.1Q3.32 -5.83 3.25 -5.68Q2.75 -4.49 2.29 -3.3Q1.84 -2.11 1.44 -0.89Q1.24 -0.32 1.08 0.29Q0.92 0.89 0.72 1.46Q0.62 1.66 0.47 1.66Q0.37 1.66 0.19 1.55Q0 1.44 0 1.34Q0 1.07 0.09 0.72Q0.17 0.37 0.22 0.1Q0.55 -1.51 1.02 -3.08Q1.49 -4.64 2.11 -6.15Q2.33 -6.75 2.64 -7.57Q2.95 -8.38 3.3 -9.24Q3.65 -10.1 4.03 -10.85Q4.42 -11.61 4.81 -12.06Q4.91 -12.15 5.04 -12.15Q5.13 -12.15 5.32 -12.04Q5.51 -11.93 5.51 -11.81Q5.51 -11.73 5.46 -11.55Q5.41 -11.36 5.36 -11.15Q5.31 -10.94 5.25 -10.75Q5.18 -10.57 5.16 -10.49Q5.95 -11.09 6.82 -11.56Q7.69 -12.03 8.73 -12.03Q9.18 -12.03 9.5 -11.84Q9.82 -11.66 10.05 -11.36Q10.27 -11.06 10.37 -10.69Q10.47 -10.32 10.47 -9.92Z" fill-rule="nonzero"></path></g></svg>